<svg width="222" height="220" viewBox="0 0 222 220" fill="none" xmlns="http://www.w3.org/2000/svg">
<path d="M131.809 189.688H73.3843C63.3638 189.688 55.1659 181.523 55.1659 171.542V120.128C55.1659 110.148 63.3638 101.983 73.3843 101.983H131.809C141.83 101.983 150.028 110.148 150.028 120.128V171.542C150.028 181.522 141.829 189.688 131.809 189.688Z" fill="white"/>
<path d="M131.809 101.982C141.829 101.982 150.027 110.147 150.027 120.128V171.542C150.027 181.522 141.829 189.687 131.809 189.687H73.3845C63.3641 189.687 55.1661 181.522 55.1661 171.542V120.128C55.1661 110.147 63.3641 101.982 73.3845 101.982H131.809V101.982ZM131.809 99.1138H73.3845C70.5468 99.1138 67.7881 99.6727 65.1849 100.774C62.6755 101.836 60.4203 103.353 58.4818 105.284C56.5434 107.215 55.0197 109.462 53.9534 111.961C52.8476 114.554 52.2864 117.301 52.2864 120.128V171.542C52.2864 174.368 52.8476 177.116 53.9534 179.709C55.0197 182.208 56.5426 184.454 58.4818 186.385C60.4203 188.315 62.6763 189.833 65.1849 190.895C67.7881 191.997 70.5468 192.555 73.3845 192.555H131.81C134.647 192.555 137.406 191.997 140.009 190.895C142.519 189.833 144.774 188.316 146.712 186.385C148.651 184.454 150.174 182.207 151.241 179.709C152.347 177.116 152.908 174.368 152.908 171.542V120.128C152.908 117.301 152.347 114.554 151.241 111.961C150.174 109.461 148.652 107.215 146.712 105.284C144.774 103.354 142.518 101.836 140.009 100.774C137.406 99.6727 134.647 99.1138 131.809 99.1138Z" fill="#460ED5"/>
<path d="M148.721 157.896C139.624 158.958 130.558 159.22 130.558 159.22C130.558 159.22 125.94 136.288 124.66 118.305C123.717 104.981 124.604 94.378 130.558 97.8362C133.297 99.4276 136.451 102.424 139.74 106.226C152.078 120.489 166.252 146.101 167.03 151.415C167.532 154.833 158.114 156.793 148.721 157.896Z" fill="white"/>
<path d="M129.34 160.747L129.091 159.514C129.063 159.373 126.24 145.282 124.412 130.692C123.334 122.09 122.808 114.988 122.846 109.583C122.897 102.202 123.974 98.0149 126.232 96.4079C127.224 95.7023 128.91 95.1549 131.313 96.5505C139.233 101.153 149.284 115.813 154.571 124.142C158.098 129.698 161.474 135.539 164.078 140.587C165.912 144.143 168.171 148.872 168.512 151.2C168.612 151.876 168.545 152.901 167.665 153.945C166.392 155.454 163.748 156.636 159.344 157.662C156.115 158.414 151.966 159.062 147.011 159.586C138.623 160.474 130.681 160.709 130.602 160.711L129.34 160.747ZM128.496 98.6672C128.207 98.6672 128.055 98.7753 127.972 98.8335C126.996 99.5284 124.068 103.85 127.381 130.308C128.881 142.29 131.059 153.939 131.783 157.684C134.337 157.582 140.398 157.288 146.712 156.619C161.37 155.066 164.644 152.89 165.373 152.027C165.574 151.789 165.558 151.678 165.55 151.631C165.125 148.734 159.595 137.637 152.041 125.735C143.293 111.953 135.189 102.253 129.805 99.1253C129.194 98.7704 128.779 98.6672 128.496 98.6672Z" fill="#460ED5"/>
<path d="M84.2709 96.9906L82.4296 110.863L81.3822 118.749L79.1484 135.588C79.1484 135.588 75.0659 138.354 68.2748 140.545C65.7374 141.365 62.8149 142.099 59.5897 142.58C54.3175 143.37 48.2216 143.47 41.6173 142.125C24.6256 138.658 14.4283 126.088 10.0134 119.767C1.4805 107.568 0.167375 104.269 2.5394 99.1335C4.3503 95.1976 7.45293 94.4789 7.45293 94.4789C7.45293 94.4789 7.2999 91.3337 9.79945 90.2151C17.2907 86.8643 26.9409 95.813 26.9409 95.813C26.9409 95.813 27.3004 86.1899 32.4715 88.4115C36.034 89.9431 36.842 100.42 36.842 100.42C36.842 100.42 41.6239 106.54 49.2204 107.352C53.1903 107.777 58.6838 106.629 64.1396 104.963C64.2029 104.944 64.2671 104.926 64.3305 104.903C67.2381 104.009 70.1268 102.973 72.772 101.948C73.9584 101.489 75.0955 101.031 76.1618 100.591C80.9289 98.623 84.2709 96.9906 84.2709 96.9906Z" fill="white"/>
<path opacity="0.35" d="M10.0109 119.767C14.4299 126.086 24.6256 138.659 41.6156 142.125C52.258 144.293 61.584 142.7 68.2755 140.542C75.0666 138.354 79.1483 135.586 79.1483 135.586L79.4478 122.298C79.4478 122.298 74.8206 117.857 70.511 119.668C65.3325 121.844 66.992 129.239 59.5962 131.296C39.0363 137.015 22.3342 126.567 16.9599 121.98C9.50406 115.618 7.55906 111.611 6.51004 109.957C4.33877 106.536 2.66198 103.847 1.71663 101.439C0.753175 105.512 2.81008 109.468 10.0109 119.767Z" fill="#00227B"/>
<path d="M51.8687 144.648C48.321 144.648 44.788 144.293 41.316 143.584C33.6783 142.026 26.5523 138.519 20.1373 133.158C16.0086 129.708 12.1886 125.489 8.78398 120.619C4.62903 114.676 1.98797 110.593 0.783444 107.313C-0.370891 104.171 -0.256527 101.621 1.17672 98.5098C2.58776 95.4466 4.72118 94.0379 6.01045 93.434C6.22108 91.8589 7.04137 89.816 9.18549 88.8572C15.2772 86.1316 22.3069 90.3495 25.7863 92.9456C25.8201 92.7694 25.8579 92.5891 25.8982 92.4064C26.475 89.8299 27.4705 88.0812 28.8569 87.2101C29.7085 86.6749 31.1294 86.2119 33.067 87.0453C35.0325 87.891 36.4666 90.3814 37.4523 94.6583C37.9566 96.8495 38.1994 98.9064 38.2907 99.8177C39.3488 101.011 43.484 105.239 49.3815 105.87C60.1473 107.018 83.3772 95.7654 83.6109 95.6515C84.1062 95.4097 84.6953 95.4589 85.1428 95.7801C85.5904 96.1005 85.8249 96.6414 85.7533 97.1855L80.6341 135.781C80.5782 136.202 80.3453 136.579 79.9924 136.818C79.8212 136.934 75.7156 139.69 68.8892 141.912C64.8906 143.213 60.7768 144.06 56.6629 144.432C55.0643 144.576 53.4649 144.648 51.8687 144.648ZM7.79913 95.9268C7.60578 95.9793 5.32097 96.6611 3.89677 99.7521C1.97892 103.915 2.45036 106.342 11.2399 118.915C19.5037 130.735 30.1108 138.255 41.9158 140.663C52.6717 142.857 62.0142 141.011 67.9578 139.077C72.9964 137.437 76.4709 135.481 77.7561 134.7L82.4261 99.4956C79.9866 100.605 75.9962 102.348 71.5179 104.02C61.5493 107.74 53.9931 109.36 49.0623 108.834C40.9276 107.966 35.8726 101.607 35.6611 101.336C35.4809 101.105 35.3723 100.826 35.3501 100.535C35.3485 100.51 35.1453 97.9657 34.5265 95.2925C33.4841 90.7862 32.2368 89.9348 31.8797 89.7816C30.9862 89.3972 30.6003 89.639 30.4547 89.7299C29.1967 90.5183 28.5154 93.7945 28.4332 95.8686C28.4101 96.4505 28.0481 96.9667 27.5076 97.1888C26.9662 97.4109 26.3458 97.2994 25.9172 96.902C25.8283 96.82 16.9038 88.6712 10.4114 91.5762C8.91562 92.2457 8.94277 94.2649 8.94688 94.41C8.99131 95.1459 8.52234 95.7744 7.79913 95.9268Z" fill="#460ED5"/>
<path d="M28.172 95.8113C28.2065 96.23 28.144 96.6111 28.0601 96.9413C28.0181 97.1118 27.9663 97.2593 27.9136 97.4109C27.8602 97.5527 27.8017 97.6969 27.7442 97.8256C27.508 98.3549 27.253 98.7934 27.0102 99.2187C26.7667 99.6415 26.5322 100.044 26.3142 100.447L26.1546 100.75C26.1044 100.852 26.0509 100.953 26.0024 101.055L25.8609 101.363L25.7259 101.675L25.6033 101.991L25.4898 102.312C25.4511 102.42 25.4223 102.529 25.3878 102.638C25.3516 102.747 25.3244 102.859 25.2948 102.969C25.1813 103.415 25.0833 103.874 25.0266 104.347C24.9649 104.819 24.9254 105.303 24.9139 105.796C24.9015 106.043 24.9064 106.291 24.904 106.543C24.8999 106.669 24.9106 106.794 24.9114 106.921C24.9139 107.048 24.918 107.175 24.9171 107.304V107.313C24.9171 107.412 24.8365 107.492 24.7361 107.492C24.6662 107.492 24.6061 107.453 24.5765 107.395C24.3363 106.931 24.1191 106.449 23.9512 105.946C23.7743 105.444 23.6476 104.921 23.5547 104.386C23.372 103.316 23.3761 102.184 23.5769 101.077L23.66 100.664C23.6921 100.528 23.7274 100.393 23.7612 100.256C23.7974 100.121 23.8377 99.9882 23.8755 99.8529C23.915 99.7194 23.9619 99.5891 24.0055 99.4571C24.1857 98.9327 24.4087 98.4344 24.6382 97.9673C24.867 97.5011 25.1105 97.061 25.308 96.6791C25.5161 96.2923 25.6338 95.9785 25.7029 95.8088L25.8477 95.454C26.0995 94.8386 26.8046 94.5427 27.4225 94.7935C27.8593 94.9722 28.135 95.3745 28.172 95.8113Z" fill="#460ED5"/>
<path d="M39.9719 143.148C39.5943 143.148 39.2298 142.94 39.0504 142.58C38.797 142.074 39.0044 141.459 39.5128 141.207C43.662 139.151 46.4973 132.734 47.71 122.651C48.6504 114.836 48.2596 107.568 48.2555 107.496C48.2242 106.932 48.6578 106.448 49.2247 106.416C49.7891 106.384 50.277 106.817 50.3091 107.381C50.3132 107.455 50.7139 114.878 49.7554 122.867C49.1885 127.595 48.2629 131.606 47.0041 134.79C45.375 138.91 43.1626 141.686 40.4294 143.041C40.2821 143.114 40.1258 143.148 39.9719 143.148Z" fill="#460ED5"/>
<g opacity="0.35">
<g opacity="0.35">
<g opacity="0.35">
<g opacity="0.35">
<path opacity="0.35" d="M172.706 209.083V208.874C171.061 208.945 172.706 209.083 172.706 209.083Z" fill="#00227B"/>
</g>
</g>
</g>
</g>
<path d="M151.947 183.918H53.1418C53.1418 183.918 53.7441 166.934 59.589 142.579C61.9314 132.811 65.1196 121.857 69.4489 110.337C70.4889 107.571 71.5972 104.772 72.7721 101.947C76.0574 94.0642 79.889 85.9915 84.3574 77.9189H120.733C124.426 84.5935 127.685 91.2649 130.559 97.8354C132.418 102.084 134.117 106.288 135.666 110.418C142.428 128.419 146.399 145.034 148.722 157.896C151.588 173.762 151.947 183.918 151.947 183.918Z" fill="white"/>
<path d="M138.383 123.084C140.293 125.207 141.165 127.679 141.972 130.161C142.377 131.403 142.776 132.647 143.157 133.896C143.347 134.521 143.543 135.144 143.714 135.775C143.889 136.403 144.059 137.034 144.23 137.664L144.73 139.558C144.895 140.19 145.061 140.821 145.216 141.456L146.125 145.267C146.273 145.903 146.435 146.534 146.58 147.171L147.014 149.08L147.459 150.987C147.608 151.622 147.763 152.257 147.903 152.894L148.76 156.715C148.908 157.351 149.034 157.992 149.17 158.631L149.572 160.547L149.772 161.505L149.873 161.985L149.967 162.465L150.343 164.387C150.468 165.027 150.597 165.667 150.732 166.306C150.862 166.946 150.993 167.586 151.13 168.225C151.703 170.776 152.12 173.36 152.294 175.977C152.316 176.304 152.342 176.63 152.357 176.959L152.399 177.943C152.421 178.6 152.439 179.257 152.429 179.918C152.425 180.578 152.41 181.238 152.367 181.901C152.329 182.564 152.274 183.227 152.173 183.895C152.154 184.024 152.033 184.112 151.904 184.093C151.816 184.08 151.747 184.02 151.717 183.943L151.717 183.94C151.244 182.69 150.858 181.435 150.494 180.18C150.315 179.552 150.142 178.922 149.975 178.294L149.734 177.349C149.659 177.034 149.581 176.719 149.502 176.403C149.196 175.142 148.926 173.878 148.683 172.608C148.566 171.972 148.46 171.334 148.363 170.695C148.258 170.057 148.162 169.417 148.063 168.778C147.966 168.138 147.864 167.5 147.76 166.861C147.65 166.224 147.527 165.589 147.403 164.954L147.03 163.048L146.937 162.572L146.838 162.097L146.638 161.147L146.24 159.247C146.105 158.614 145.979 157.979 145.834 157.348L144.983 153.559C144.846 152.926 144.687 152.299 144.536 151.669L144.071 149.784L143.595 147.901C143.518 147.587 143.43 147.275 143.346 146.963L143.09 146.026L142.062 142.281C141.707 141.036 141.343 139.794 140.997 138.547C140.824 137.923 140.651 137.3 140.483 136.674L140.358 136.206L140.226 135.739L139.965 134.804C139.617 133.557 139.287 132.305 138.962 131.051L138.723 130.109C138.644 129.795 138.556 129.484 138.472 129.17C138.305 128.544 138.165 127.91 138.06 127.265C137.955 126.619 137.882 125.964 137.854 125.294C137.839 124.958 137.837 124.619 137.85 124.275C137.863 123.931 137.885 123.582 137.946 123.223L137.948 123.209C137.971 123.073 138.101 122.981 138.237 123.004C138.296 123.015 138.347 123.044 138.383 123.084Z" fill="#460ED5"/>
<path d="M52.91 183.911C52.7578 183.573 52.6533 183.238 52.5554 182.901C52.4575 182.563 52.3843 182.23 52.3193 181.894C52.1876 181.222 52.1169 180.554 52.0774 179.888C52.0593 179.554 52.0469 179.222 52.0477 178.89C52.0486 178.558 52.0617 178.228 52.0774 177.897L52.1333 176.907C52.1506 176.576 52.1712 176.246 52.1983 175.917C52.3012 174.599 52.4015 173.28 52.5562 171.968C52.6261 171.311 52.7043 170.656 52.7816 169.999C52.8195 169.671 52.8705 169.345 52.9149 169.017L53.054 168.037L53.3444 166.077C53.4464 165.425 53.5649 164.776 53.676 164.125C53.9031 162.825 54.117 161.523 54.3762 160.229C54.6279 158.933 54.8583 157.634 55.1158 156.341C55.3775 155.049 55.6325 153.755 55.8843 152.46C55.9485 152.136 56.006 151.812 56.076 151.49L56.2833 150.523L56.6972 148.589L57.111 146.655C57.1464 146.493 57.1785 146.332 57.2155 146.171L57.329 145.69L57.5561 144.727L58.4636 140.877C58.5369 140.555 58.6191 140.236 58.7006 139.916C58.7796 139.596 58.8602 139.276 58.9359 138.956C59.0889 138.314 59.2403 137.673 59.3859 137.029C59.5349 136.387 59.6805 135.743 59.8344 135.101C59.9825 134.458 60.1684 133.825 60.3543 133.192C60.5444 132.56 60.746 131.931 60.9574 131.305C61.1697 130.68 61.3951 130.058 61.623 129.438L61.9752 128.51C62.0344 128.356 62.1002 128.203 62.1644 128.05C62.2294 127.898 62.2919 127.745 62.3594 127.592C62.6252 126.983 62.8942 126.377 63.1805 125.776C63.4636 125.174 63.7589 124.576 64.0691 123.985C64.3793 123.393 64.701 122.806 65.0581 122.23C65.1264 122.12 65.272 122.085 65.3831 122.154C65.4587 122.201 65.4991 122.284 65.4949 122.367V122.37C65.3469 125.075 64.8384 127.648 64.3365 130.22C64.2073 130.862 64.0757 131.503 63.9309 132.14C63.7853 132.777 63.6289 133.41 63.4627 134.041C63.1155 135.298 62.7667 136.554 62.403 137.808C62.2212 138.435 62.0443 139.062 61.869 139.691C61.7802 140.005 61.6971 140.32 61.6123 140.635C61.5292 140.95 61.4437 141.265 61.3729 141.584L60.4753 145.394L60.2507 146.346L60.1388 146.822C60.1018 146.981 60.0697 147.141 60.0351 147.3L59.6254 149.213L59.2156 151.127L59.0108 152.084C58.9425 152.403 58.8849 152.724 58.8215 153.043C57.77 158.156 57.0633 163.33 56.3763 168.494L56.1097 170.429C56.0266 171.075 55.9435 171.721 55.853 172.366L55.3232 176.236C55.2269 176.881 55.1496 177.526 55.0623 178.171C55.0171 178.493 54.9694 178.816 54.9093 179.137C54.8501 179.458 54.7917 179.78 54.7192 180.1C54.5753 180.741 54.3967 181.38 54.1853 182.018C54.08 182.336 53.9541 182.656 53.8249 182.974C53.6924 183.292 53.5485 183.611 53.3707 183.929L53.3691 183.932C53.3 184.055 53.1445 184.099 53.0211 184.03C52.9692 184.001 52.9322 183.958 52.91 183.911Z" fill="#460ED5"/>
<path d="M81.5994 162.49C75.9643 164.763 67.243 164.287 61.2977 163.57C57.7319 163.141 55.2282 159.863 55.754 156.324C56.2336 153.094 59.0878 150.746 62.3616 150.898C67.9226 151.158 76.2646 151.279 81.5475 150.112" fill="white"/>
<g opacity="0.35">
<g opacity="0.35">
<g opacity="0.35">
<g opacity="0.35">
<path opacity="0.35" d="M81.6009 162.49C75.9641 164.765 67.2429 164.285 61.2976 163.573C57.7317 163.143 55.2289 159.863 55.7546 156.326C55.8591 155.604 56.087 154.927 56.4104 154.308C57.3492 156.094 59.1271 157.41 61.2976 157.672C67.2322 158.389 75.9386 158.864 81.5762 156.603L81.6009 162.49Z" fill="#00227B"/>
</g>
</g>
</g>
</g>
<path d="M70.3958 165.654C67.1352 165.654 63.8935 165.386 61.1175 165.051C58.9915 164.795 57.1049 163.72 55.8049 162.023C54.5025 160.324 53.9587 158.223 54.273 156.107C54.5593 154.178 55.5482 152.434 57.0572 151.194C58.5678 149.952 60.4766 149.319 62.4315 149.411C70.6237 149.793 77.2971 149.525 81.2225 148.658C82.0107 148.485 83.9689 148.478 85.1249 152.18C86.299 155.94 86.169 162.258 82.1613 163.874C78.8563 165.205 74.6108 165.654 70.3958 165.654ZM62.0579 152.382C59.644 152.382 57.592 154.133 57.2349 156.542C57.0399 157.855 57.3772 159.159 58.1852 160.214C58.9907 161.265 60.1598 161.931 61.4779 162.09C69.9795 163.115 76.9269 162.767 81.0382 161.109C82.2592 160.616 82.6097 158.645 82.7043 157.821C83.0334 154.936 82.1522 152.272 81.6002 151.627C76.2423 152.748 68.1686 152.662 62.2924 152.388C62.2134 152.384 62.1353 152.382 62.0579 152.382Z" fill="#00227B"/>
<path d="M124.703 162.49C130.338 164.763 139.06 164.287 145.005 163.57C148.571 163.141 151.074 159.863 150.549 156.324C150.069 153.094 147.215 150.746 143.941 150.898C138.38 151.158 130.038 151.279 124.755 150.112" fill="white"/>
<g opacity="0.35">
<g opacity="0.35">
<g opacity="0.35">
<g opacity="0.35">
<path opacity="0.35" d="M145.003 163.573C139.058 164.285 130.337 164.765 124.7 162.49L124.724 156.548C130.361 158.809 139.068 158.334 145.003 157.617C147.164 157.36 148.932 156.053 149.875 154.278C150.208 154.901 150.441 155.589 150.551 156.326C151.073 159.863 148.57 163.143 145.003 163.573Z" fill="#00227B"/>
</g>
</g>
</g>
</g>
<path d="M135.907 165.654C131.692 165.654 127.447 165.205 124.141 163.873C120.134 162.257 120.004 155.94 121.178 152.179C122.333 148.478 124.292 148.484 125.08 148.658C129.006 149.526 135.68 149.793 143.871 149.41C145.828 149.319 147.735 149.952 149.246 151.193C150.754 152.433 151.743 154.178 152.03 156.106C152.344 158.222 151.799 160.323 150.498 162.023C149.198 163.719 147.311 164.794 145.185 165.05C142.409 165.385 139.167 165.654 135.907 165.654ZM124.703 151.627C124.151 152.272 123.27 154.937 123.599 157.821C123.693 158.645 124.043 160.616 125.265 161.109C129.377 162.767 136.324 163.116 144.826 162.091C146.143 161.932 147.313 161.265 148.118 160.214C148.926 159.159 149.264 157.855 149.069 156.542C148.7 154.056 146.526 152.272 144.012 152.388C138.134 152.662 130.061 152.748 124.703 151.627Z" fill="#00227B"/>
<path d="M126.881 146.022V165.858C126.881 169.539 123.857 172.551 120.162 172.551H83.4837C79.7936 172.551 76.7692 169.539 76.7692 165.858V146.022C76.7692 142.342 79.7936 139.334 83.4837 139.334H120.162C122.337 139.334 124.279 140.378 125.51 141.985C126.369 143.108 126.881 144.509 126.881 146.022Z" fill="white"/>
<g opacity="0.35">
<g opacity="0.35">
<g opacity="0.35">
<g opacity="0.35">
<path opacity="0.35" d="M126.88 146.022V165.858C126.88 169.539 123.857 172.549 120.162 172.549H83.4849C79.7899 172.549 76.767 169.539 76.767 165.858V158.439C82.2754 164.033 93.1087 167.544 103.044 167.597C106.237 167.614 108.812 165.099 109.04 161.927C109.042 161.895 109.045 161.863 109.047 161.832C109.292 159.049 111.593 156.795 114.39 156.594C117.576 156.366 120.266 158.709 120.581 161.755C125.39 155.842 123.981 145.564 125.511 141.985C126.371 143.11 126.88 144.508 126.88 146.022Z" fill="#00227B"/>
</g>
</g>
</g>
</g>
<path d="M120.163 174.041H83.4842C78.9557 174.041 75.2714 170.371 75.2714 165.861V146.022C75.2714 141.512 78.9557 137.842 83.4842 137.842H120.163C124.691 137.842 128.376 141.512 128.376 146.022V165.861C128.376 170.371 124.691 174.041 120.163 174.041ZM83.4842 140.823C80.6062 140.823 78.2646 143.156 78.2646 146.022V165.861C78.2646 168.727 80.6062 171.06 83.4842 171.06H120.163C123.041 171.06 125.383 168.727 125.383 165.861V146.022C125.383 143.156 123.041 140.823 120.163 140.823H83.4842Z" fill="#00227B"/>
<path d="M114.817 161.71C118.016 161.71 120.61 159.127 120.61 155.941C120.61 152.755 118.016 150.172 114.817 150.172C111.618 150.172 109.025 152.755 109.025 155.941C109.025 159.127 111.618 161.71 114.817 161.71Z" fill="#22A7F0"/>
<g opacity="0.7">
<g opacity="0.7">
<g opacity="0.7">
<g opacity="0.7">
<path opacity="0.7" d="M120.61 155.941C120.61 156.336 120.572 156.72 120.497 157.094C119.962 154.456 117.622 152.472 114.819 152.472C112.012 152.472 109.672 154.456 109.137 157.094C109.062 156.72 109.024 156.337 109.024 155.941C109.024 152.753 111.618 150.174 114.819 150.174C118.015 150.174 120.61 152.753 120.61 155.941Z" fill="white"/>
</g>
</g>
</g>
</g>
<g opacity="0.35">
<g opacity="0.35">
<g opacity="0.35">
<g opacity="0.35">
<path opacity="0.35" d="M120.608 155.94C120.608 159.126 118.016 161.708 114.817 161.708C111.619 161.708 109.027 159.126 109.027 155.94C109.027 155.204 109.166 154.501 109.424 153.853C110.259 156.005 112.36 157.529 114.818 157.529C117.277 157.529 119.377 156.005 120.212 153.853C120.469 154.501 120.608 155.203 120.608 155.94Z" fill="#00227B"/>
</g>
</g>
</g>
</g>
<path d="M114.817 162.828C111.005 162.828 107.903 159.739 107.903 155.941C107.903 152.144 111.005 149.054 114.817 149.054C118.63 149.054 121.732 152.144 121.732 155.941C121.732 159.739 118.63 162.828 114.817 162.828ZM114.817 151.291C112.243 151.291 110.148 153.377 110.148 155.941C110.148 158.505 112.243 160.592 114.817 160.592C117.392 160.592 119.487 158.505 119.487 155.941C119.487 153.377 117.392 151.291 114.817 151.291Z" fill="#00227B"/>
<path d="M98.4046 173.668C97.7842 173.668 97.2823 173.167 97.2823 172.55V158.963L89.9474 153.463V139.333C89.9474 138.715 90.4501 138.215 91.0696 138.215C91.6892 138.215 92.1919 138.716 92.1919 139.333V152.347L99.5268 157.847V172.55C99.5268 173.167 99.0241 173.668 98.4046 173.668Z" fill="#00227B"/>
<path d="M102.543 183.231C109.031 183.231 115.27 180.833 120.143 176.566C126.893 170.656 138.256 163.607 150.799 168.128C155.831 169.941 159.261 173.267 161.601 176.948C167.627 163.041 180.267 162.208 185.739 170.089C185.739 170.089 176.542 213.79 173.545 214.763C169.251 216.156 158.933 214.691 158.933 214.691C158.933 214.691 123.039 209.851 102.543 209.851C82.0461 209.851 46.1523 214.691 46.1523 214.691C46.1523 214.691 35.8349 216.155 31.5409 214.763C28.5435 213.79 19.3467 170.089 19.3467 170.089C24.8172 162.207 37.459 163.041 43.4849 176.948C45.824 173.267 49.2541 169.941 54.2869 168.128C66.8291 163.607 78.1923 170.656 84.9422 176.566C89.8154 180.832 96.0544 183.231 102.543 183.231Z" fill="white"/>
<g opacity="0.35">
<path d="M185.74 170.088C185.74 170.088 176.542 213.79 173.545 214.763C169.253 216.157 158.933 214.693 158.933 214.693C158.933 214.693 123.041 209.851 102.542 209.851C82.0482 209.851 46.1519 214.693 46.1519 214.693C46.1519 214.693 35.8353 216.157 31.5438 214.763C28.5465 213.79 19.3488 170.088 19.3488 170.088C20.2506 168.791 21.3432 167.729 22.5707 166.924C25.5195 179.737 29.7024 196.468 31.5438 197.064C35.8361 198.454 46.1519 196.99 46.1519 196.99C46.1519 196.99 82.0482 187.307 102.542 187.307C123.041 187.307 158.933 196.99 158.933 196.99C158.933 196.99 169.253 198.454 173.545 197.064C175.386 196.468 179.569 179.737 182.518 166.924C183.746 167.729 184.838 168.791 185.74 170.088Z" fill="#00227B"/>
</g>
<path d="M37.0748 216.85C34.8237 216.85 32.6245 216.682 31.0777 216.181C30.0229 215.838 29.136 214.674 27.4715 209.51C26.4974 206.486 25.3282 202.277 23.9978 196.998C21.6019 187.493 19.2669 176.834 18.3742 172.692C17.9069 170.524 18.6202 168.281 20.237 166.84C23.3404 164.073 27.5003 163.008 31.6487 163.917C34.2634 164.491 36.8074 165.85 39.0058 167.849C40.8266 169.505 42.4096 171.574 43.7293 174.02C46.4074 170.616 49.779 168.168 53.7793 166.726C58.3119 165.092 63.0543 164.768 67.8757 165.762C71.7682 166.565 75.7265 168.229 79.6395 170.711C80.3372 171.153 80.5421 172.074 80.0986 172.769C79.6552 173.464 78.7295 173.668 78.0318 173.226C69.9778 168.119 62.1608 166.876 54.7979 169.531C50.6454 171.027 47.2647 173.79 44.7511 177.746C44.4541 178.213 43.921 178.478 43.3689 178.435C42.816 178.392 42.3322 178.047 42.1117 177.539C39.5941 171.728 35.5461 167.825 31.0053 166.83C27.808 166.13 24.6108 166.943 22.2338 169.063C21.416 169.792 21.0589 170.943 21.3016 172.068C22.1441 175.977 24.3524 186.064 26.6529 195.279C27.9174 200.344 29.038 204.465 29.9842 207.526C31.3089 211.812 32.0008 213.069 32.2468 213.42C35.6284 214.364 43.234 213.602 45.9425 213.218C45.9458 213.217 45.9491 213.217 45.9524 213.216C46.3119 213.168 82.1819 208.362 102.544 208.362C122.906 208.362 158.775 213.168 159.135 213.216C159.138 213.217 159.142 213.217 159.145 213.218C161.855 213.602 169.46 214.364 172.841 213.42C173.083 213.076 173.756 211.855 175.036 207.744C175.96 204.779 177.054 200.783 178.288 195.868C180.488 187.103 182.597 177.567 183.658 172.663C184.006 171.056 183.401 169.409 182.118 168.467C179.668 166.668 176.632 166.131 173.571 166.956C169.184 168.137 165.421 171.896 162.976 177.54C162.757 178.047 162.273 178.392 161.719 178.436C161.165 178.479 160.634 178.214 160.337 177.747C157.823 173.792 154.443 171.028 150.291 169.531C142.863 166.854 134.979 168.141 126.856 173.355C126.161 173.801 125.235 173.602 124.787 172.909C124.339 172.218 124.539 171.295 125.234 170.848C129.171 168.321 133.155 166.62 137.075 165.791C141.944 164.762 146.733 165.078 151.309 166.727C155.31 168.169 158.681 170.617 161.36 174.021C164.172 168.816 168.165 165.322 172.79 164.077C176.694 163.026 180.741 163.751 183.895 166.067C186.125 167.704 187.18 170.539 186.585 173.291C185.461 178.487 183.233 188.552 180.941 197.589C179.642 202.713 178.5 206.795 177.548 209.722C175.924 214.715 175.052 215.845 174.009 216.183C169.458 217.659 159.25 216.244 158.73 216.17C158.167 216.095 122.645 211.344 102.544 211.344C82.4402 211.344 46.9216 216.095 46.3588 216.17C46.0133 216.217 41.4478 216.85 37.0748 216.85Z" fill="#460ED5"/>
<path d="M170.879 214.763H173.545C176.675 214.763 179.513 212.935 180.787 210.088C184.777 201.188 192.053 181.631 185.238 169.697C185.04 169.349 184.828 169.014 184.603 168.692C184.603 168.692 178.06 162.765 173.36 171.15C168.97 178.983 159.754 212.476 170.879 214.763Z" fill="#AFAFB2"/>
<g opacity="0.7">
<g opacity="0.7">
<g opacity="0.7">
<g opacity="0.7">
<path opacity="0.7" d="M170.953 176.733C171.07 176.545 171.188 176.368 171.303 176.203C177.082 167.819 185.127 173.746 185.127 173.746C185.403 174.067 185.665 174.402 185.907 174.751C186.714 175.899 187.36 177.118 187.864 178.394C187.538 175.259 186.724 172.296 185.238 169.698C185.04 169.349 184.828 169.014 184.603 168.693C184.603 168.693 178.061 162.766 173.36 171.151C172.647 172.42 171.81 174.359 170.953 176.733Z" fill="white"/>
</g>
</g>
</g>
</g>
<path d="M187.828 179.288C187.761 179.288 187.693 179.282 187.624 179.271L171.27 176.552C170.598 176.44 170.144 175.807 170.256 175.137C170.368 174.467 171.005 174.015 171.676 174.126L188.029 176.845C188.701 176.957 189.156 177.59 189.044 178.26C188.943 178.863 188.421 179.288 187.828 179.288Z" fill="#460ED5"/>
<path d="M187.724 188.088C187.669 188.088 187.614 188.085 187.558 188.077L168.428 185.515C167.753 185.425 167.279 184.806 167.369 184.134C167.46 183.461 168.081 182.989 168.757 183.079L187.887 185.641C188.563 185.731 189.037 186.349 188.946 187.022C188.863 187.64 188.333 188.088 187.724 188.088Z" fill="#460ED5"/>
<path d="M186.037 196.708C185.987 196.708 185.937 196.704 185.886 196.699L166.466 194.331C165.79 194.248 165.308 193.636 165.391 192.962C165.474 192.288 166.088 191.808 166.766 191.891L186.185 194.258C186.862 194.341 187.343 194.954 187.261 195.628C187.184 196.251 186.652 196.708 186.037 196.708Z" fill="#460ED5"/>
<path d="M182.957 206.108C182.92 206.108 182.883 206.106 182.845 206.103L165.483 204.543C164.804 204.482 164.304 203.884 164.365 203.208C164.426 202.532 165.026 202.033 165.705 202.094L183.067 203.654C183.746 203.715 184.247 204.313 184.185 204.989C184.127 205.628 183.588 206.108 182.957 206.108Z" fill="#460ED5"/>
<g opacity="0.35">
<g opacity="0.35">
<g opacity="0.35">
<g opacity="0.35">
<path opacity="0.35" d="M170.878 214.763H173.544C176.674 214.763 179.512 212.935 180.786 210.088C181.818 207.781 183.073 204.764 184.246 201.345C182.646 203.99 179.394 205.668 175.824 205.668H172.647C168.125 204.888 166.423 200.471 166.356 194.681C164.827 204.453 165.247 213.605 170.878 214.763Z" fill="#00227B"/>
</g>
</g>
</g>
</g>
<path d="M173.545 215.992H170.88C170.796 215.992 170.713 215.984 170.63 215.967C168.475 215.524 166.847 214.132 165.79 211.83C163.298 206.404 164.509 196.949 165.964 189.974C167.743 181.45 170.49 173.75 172.283 170.551C173.932 167.609 176.009 165.915 178.456 165.518C182.21 164.908 185.304 167.665 185.434 167.783C185.502 167.844 185.563 167.914 185.616 167.988C185.862 168.339 186.096 168.71 186.313 169.09C189.428 174.544 190.088 182.005 188.278 191.265C186.805 198.792 184.005 205.928 181.915 210.589C180.445 213.872 177.16 215.992 173.545 215.992ZM171.014 213.534H173.545C176.186 213.534 178.587 211.985 179.66 209.588C181.697 205.044 184.425 198.095 185.854 190.796C187.549 182.13 186.981 175.236 184.166 170.305C184.013 170.036 183.849 169.774 183.679 169.523C183.217 169.147 181.116 167.569 178.84 167.947C177.179 168.223 175.698 169.502 174.439 171.75C172.778 174.711 170.091 182.281 168.382 190.475C166.431 199.826 166.307 207.047 168.035 210.808C168.736 212.335 169.711 213.228 171.014 213.534Z" fill="#460ED5"/>
<path d="M34.2082 214.763H31.5425C28.4127 214.763 25.575 212.935 24.3005 210.088C20.3101 201.188 13.0345 181.631 19.8494 169.697C20.0477 169.349 20.26 169.014 20.4846 168.692C20.4846 168.692 27.0272 162.765 31.7276 171.15C36.1179 178.983 45.3328 212.476 34.2082 214.763Z" fill="#AFAFB2"/>
<g opacity="0.7">
<g opacity="0.7">
<g opacity="0.7">
<g opacity="0.7">
<path opacity="0.7" d="M34.1336 176.733C34.0159 176.545 33.8982 176.368 33.7839 176.203C28.0048 167.819 19.959 173.746 19.959 173.746C19.6834 174.067 19.4209 174.402 19.179 174.751C18.3719 175.899 17.7269 177.118 17.2225 178.394C17.5483 175.259 18.362 172.296 19.8479 169.698C20.0462 169.349 20.2585 169.014 20.4831 168.693C20.4831 168.693 27.0257 162.766 31.7262 171.151C32.4387 172.42 33.2762 174.359 34.1336 176.733Z" fill="white"/>
</g>
</g>
</g>
</g>
<path d="M17.2582 179.288C16.6658 179.288 16.1434 178.862 16.0422 178.261C15.9303 177.592 16.3836 176.958 17.0566 176.846L33.4098 174.127C34.082 174.015 34.718 174.467 34.8299 175.137C34.9418 175.807 34.4885 176.44 33.8155 176.553L17.4623 179.272C17.394 179.283 17.3257 179.288 17.2582 179.288Z" fill="#460ED5"/>
<path d="M17.3616 188.088C16.7528 188.088 16.2229 187.64 16.1398 187.023C16.0493 186.35 16.5232 185.732 17.1987 185.641L36.3296 183.079C37.0059 182.988 37.6263 183.461 37.7176 184.134C37.8081 184.806 37.3342 185.425 36.6587 185.515L17.5278 188.078C17.4719 188.085 17.4168 188.088 17.3616 188.088Z" fill="#460ED5"/>
<path d="M19.0498 196.708C18.4352 196.708 17.9029 196.251 17.8263 195.628C17.7432 194.954 18.2246 194.341 18.9017 194.258L38.3214 191.891C38.9977 191.809 39.6131 192.287 39.6962 192.962C39.7793 193.635 39.298 194.248 38.6208 194.331L19.2012 196.699C19.1502 196.705 19.0992 196.708 19.0498 196.708Z" fill="#460ED5"/>
<path d="M22.1298 206.108C21.4979 206.108 20.9599 205.628 20.9023 204.989C20.8414 204.313 21.3416 203.716 22.0204 203.654L39.3823 202.094C40.0619 202.033 40.6609 202.532 40.7226 203.208C40.7835 203.884 40.2832 204.481 39.6045 204.543L22.2425 206.103C22.2047 206.106 22.1668 206.108 22.1298 206.108Z" fill="#460ED5"/>
<g opacity="0.35">
<g opacity="0.35">
<g opacity="0.35">
<g opacity="0.35">
<path opacity="0.35" d="M34.2075 214.763H31.5417C28.4119 214.763 25.5742 212.935 24.2998 210.088C23.268 207.781 22.0133 204.764 20.84 201.345C22.4403 203.99 25.6919 205.668 29.2618 205.668H32.4393C36.9612 204.888 38.6627 200.471 38.7302 194.681C40.2589 204.453 39.8385 213.605 34.2075 214.763Z" fill="#00227B"/>
</g>
</g>
</g>
</g>
<path d="M34.2076 215.992H31.5419C27.9275 215.992 24.6422 213.872 23.1728 210.589C21.0838 205.929 18.2831 198.793 16.8104 191.265C14.9995 182.006 15.6601 174.545 18.7751 169.09C18.9915 168.71 19.226 168.34 19.4712 167.989C19.5238 167.914 19.5847 167.845 19.653 167.783C19.783 167.665 22.8774 164.909 26.6308 165.518C29.0777 165.916 31.1552 167.61 32.804 170.552C34.5976 173.751 37.344 181.451 39.1228 189.975C40.5783 196.95 41.7894 206.404 39.2972 211.831C38.24 214.133 36.6118 215.524 34.4569 215.968C34.3747 215.984 34.2907 215.992 34.2076 215.992ZM21.4071 169.524C21.2368 169.774 21.0739 170.036 20.9209 170.304C18.1054 175.236 17.5369 182.129 19.2326 190.796C20.6609 198.096 23.3883 205.044 25.4263 209.588C26.5 211.986 28.9 213.535 31.5411 213.535H34.0727C35.3751 213.229 36.3509 212.336 37.0519 210.808C38.7789 207.047 38.6563 199.826 36.7056 190.475C34.9959 182.281 32.3087 174.711 30.6484 171.75C29.3887 169.502 27.9078 168.223 26.2474 167.946C23.975 167.57 21.8753 169.143 21.4071 169.524Z" fill="#460ED5"/>
<path d="M64.2988 213.641C64.1236 213.641 63.9459 213.6 63.7797 213.514C63.2301 213.228 63.0178 212.551 63.3058 212.004C67.993 203.084 68.0621 193.052 63.5114 182.188C60.0789 173.994 55.1637 168.387 55.1143 168.332C54.7046 167.869 54.749 167.162 55.2139 166.753C55.6788 166.345 56.388 166.389 56.7977 166.852C57.0075 167.089 61.9762 172.746 65.5568 181.264C67.6697 186.29 68.8479 191.263 69.0602 196.046C69.3267 202.061 68.0597 207.778 65.2944 213.041C65.0936 213.423 64.7028 213.641 64.2988 213.641Z" fill="#00227B"/>
<path d="M141.243 213.641C140.838 213.641 140.448 213.423 140.247 213.041C137.482 207.779 136.215 202.061 136.482 196.047C136.694 191.264 137.872 186.29 139.985 181.265C143.566 172.747 148.534 167.089 148.744 166.853C149.155 166.389 149.864 166.345 150.329 166.754C150.794 167.162 150.838 167.869 150.427 168.332C150.378 168.387 145.463 173.994 142.03 182.188C137.48 193.053 137.549 203.084 142.236 212.004C142.523 212.551 142.311 213.227 141.762 213.513C141.596 213.6 141.418 213.641 141.243 213.641Z" fill="#00227B"/>
<g opacity="0.35">
<path d="M139.741 106.226C138.446 107.702 137.084 109.103 135.665 110.419C132.298 113.542 128.608 116.2 124.66 118.306C117.992 121.869 110.594 123.867 102.804 123.904C95.1922 123.937 87.9477 122.096 81.3813 118.749C77.0815 116.554 73.0739 113.718 69.4479 110.337C67.6445 108.652 65.9339 106.837 64.3287 104.903C67.2364 104.009 70.1251 102.973 72.7703 101.948C76.0555 94.065 79.8871 85.9923 84.3556 77.9197H120.731C124.424 84.5943 127.683 91.2656 130.557 97.8362C133.297 99.4276 136.451 102.424 139.741 106.226Z" fill="#460ED5"/>
</g>
<path d="M158.09 70.2338C157.457 70.3018 156.888 69.8454 156.82 69.2144L153.27 36.3091C153.202 35.6782 153.66 35.1119 154.293 35.0439C160.939 34.3326 166.905 39.1216 167.619 45.7405L168.831 56.9616C169.545 63.5805 164.736 69.5225 158.09 70.2338Z" fill="white"/>
<path d="M157.965 70.5239C157.638 70.5239 157.323 70.4141 157.065 70.2068C156.766 69.9667 156.579 69.625 156.538 69.2447L152.988 36.3395C152.947 35.9592 153.057 35.5856 153.298 35.2881C153.539 34.9906 153.882 34.8038 154.264 34.7628C161.056 34.0359 167.173 38.947 167.903 45.711L169.113 56.9321C169.467 60.2084 168.518 63.4256 166.442 65.9914C164.366 68.5572 161.41 70.1642 158.121 70.5166L158.091 70.2347L158.121 70.5166C158.069 70.5215 158.017 70.5239 157.965 70.5239ZM155.596 35.2569C155.176 35.2569 154.752 35.2791 154.325 35.325C154.094 35.3495 153.886 35.4626 153.741 35.6421C153.595 35.8224 153.528 36.0477 153.553 36.278L157.103 69.1833C157.128 69.4135 157.242 69.62 157.423 69.7651C157.604 69.9101 157.83 69.9765 158.061 69.9519C161.2 69.616 164.019 68.0827 166 65.6349C167.981 63.1872 168.886 60.1174 168.549 56.9911L167.338 45.77C166.687 39.7428 161.551 35.2569 155.596 35.2569Z" fill="#00227B"/>
<g opacity="0.35">
<g opacity="0.35">
<g opacity="0.35">
<g opacity="0.35">
<path opacity="0.35" d="M168.263 51.6997L168.832 56.9624C169.546 63.5788 164.737 69.5225 158.091 70.2362C157.458 70.3051 156.889 69.8445 156.821 69.2143L155.874 60.4672C156.094 60.8467 156.525 61.0794 156.99 61.0335L157.773 60.9475C163.024 60.3861 167.132 56.5551 168.263 51.6997Z" fill="#00227B"/>
</g>
</g>
</g>
</g>
<path d="M157.963 71.8179C157.341 71.8179 156.742 71.6081 156.251 71.2139C155.681 70.7575 155.325 70.1068 155.247 69.3832L151.697 36.478C151.619 35.7544 151.828 35.0431 152.287 34.476C152.745 33.9089 153.398 33.5541 154.125 33.4763C161.627 32.6732 168.387 38.0997 169.194 45.5725L170.404 56.7936C170.795 60.4132 169.747 63.9681 167.453 66.8035C165.159 69.6381 161.894 71.4139 158.259 71.8023C158.161 71.8121 158.062 71.8179 157.963 71.8179ZM157.924 68.6662H157.923C157.923 68.6662 157.923 68.6662 157.924 68.6662ZM154.892 36.5747L158.349 68.6129C160.971 68.2261 163.316 66.892 164.989 64.8245C166.753 62.6455 167.558 59.9134 167.258 57.1304L166.048 45.9093C165.443 40.3074 160.486 36.201 154.892 36.5747Z" fill="#460ED5"/>
<path d="M45.2454 46.7156C45.879 46.6476 46.4475 47.104 46.5158 47.735L50.066 80.6403C50.1343 81.2713 49.676 81.8376 49.0425 81.9056C42.397 82.6169 36.4312 77.8279 35.717 71.209L34.5067 59.9879C33.7909 53.3689 38.6 47.4269 45.2454 46.7156Z" fill="white"/>
<path d="M47.7394 82.2588C41.4979 82.2596 36.1146 77.5575 35.4334 71.2393L34.2231 60.0182C33.4933 53.2543 38.4241 47.1606 45.2152 46.4338L45.2456 46.7157L45.2152 46.4338C46.0026 46.3494 46.7134 46.9197 46.7982 47.7048L50.3484 80.61C50.4331 81.3951 49.8605 82.1023 49.0723 82.1867C48.6255 82.235 48.1796 82.2588 47.7394 82.2588ZM45.369 46.9918C45.3378 46.9918 45.3073 46.9935 45.2752 46.9967C38.796 47.69 34.0914 53.5042 34.7883 59.9576L35.9986 71.1787C36.6946 77.632 42.5313 82.3178 49.0114 81.6245C49.4878 81.5737 49.8342 81.146 49.7832 80.6715L46.2329 47.7662C46.1852 47.3221 45.8067 46.9918 45.369 46.9918Z" fill="#00227B"/>
<g opacity="0.35">
<g opacity="0.35">
<g opacity="0.35">
<g opacity="0.35">
<path opacity="0.35" d="M49.0842 71.5114L50.0682 80.6404C50.1373 81.2714 49.6749 81.8376 49.0422 81.9057C45.5537 82.2777 42.2495 81.1362 39.796 79.0072C37.5803 77.0847 36.0582 74.3525 35.7184 71.2107L35.2083 66.4823C37.5425 70.4289 42.057 72.8685 46.9294 72.3481L48.1347 72.2186C48.5741 72.1711 48.9221 71.8884 49.0842 71.5114Z" fill="#00227B"/>
</g>
</g>
</g>
</g>
<path d="M47.7387 83.5519C40.8423 83.5527 34.8954 78.3581 34.1425 71.3769L32.9323 60.1559C32.1259 52.6831 37.5743 45.9502 45.0771 45.1472C46.5761 44.9865 47.9287 46.0715 48.09 47.5654L51.6402 80.4715C51.8015 81.9662 50.7122 83.3118 49.2114 83.4724C48.717 83.5265 48.2249 83.5519 47.7387 83.5519ZM44.9882 48.3374C39.4428 49.1569 35.4754 54.2179 36.0793 59.8199L37.2896 71.041C37.8943 76.6429 42.8507 80.7485 48.4446 80.3756L44.9882 48.3374Z" fill="#460ED5"/>
<path d="M101.674 114.871C132.945 114.871 158.296 89.6211 158.296 58.4743C158.296 27.3274 132.945 2.07794 101.674 2.07794C70.402 2.07794 45.0513 27.3274 45.0513 58.4743C45.0513 89.6211 70.402 114.871 101.674 114.871Z" fill="white"/>
<path d="M101.619 115.155C94.6767 115.155 87.8947 113.915 81.4286 111.461C74.5528 108.852 68.3236 104.985 62.9123 99.9717C57.501 94.9573 53.1815 89.0473 50.0723 82.4054C46.8537 75.5284 45.0814 68.1646 44.8042 60.5181C44.5269 52.8715 45.7619 45.3995 48.4745 38.3094C51.0942 31.4611 54.976 25.2568 60.0096 19.8671C65.0433 14.4774 70.9787 10.1744 77.648 7.07757C84.5526 3.87178 91.9459 2.10663 99.6231 1.83047C107.3 1.5543 114.802 2.78434 121.921 5.48615C128.797 8.09536 135.026 11.9616 140.437 16.9752C145.848 21.9896 150.168 27.8996 153.277 34.5415C156.496 41.4185 158.268 48.7823 158.545 56.4289C158.822 64.0754 157.588 71.5474 154.875 78.6375C152.255 85.4858 148.373 91.6901 143.339 97.0798C138.304 102.469 132.371 106.772 125.702 109.869C118.798 113.074 111.404 114.839 103.727 115.116C103.022 115.142 102.319 115.155 101.619 115.155ZM101.701 2.35985C101.016 2.35985 100.333 2.37214 99.6429 2.39673C68.5984 3.51285 44.2529 29.5763 45.3727 60.4967C45.9149 75.4751 52.2814 89.3472 63.299 99.5562C73.8065 109.293 87.3467 114.587 101.623 114.588C102.316 114.588 103.009 114.576 103.705 114.55C118.743 114.01 132.671 107.669 142.921 96.6955C153.171 85.7219 158.517 71.4294 157.975 56.451C156.881 26.2173 131.834 2.35985 101.701 2.35985Z" fill="#00227B"/>
<g opacity="0.35">
<g opacity="0.35">
<g opacity="0.35">
<g opacity="0.35">
<path opacity="0.35" d="M157.436 48.6587C157.888 51.1941 158.166 53.7919 158.262 56.4412C159.385 87.5674 134.966 113.71 103.715 114.835C72.4642 115.954 46.2165 91.6328 45.0869 60.5075C45.054 59.6126 45.0424 58.7161 45.0531 57.8319C49.8613 85.1303 74.262 105.404 102.855 104.377C133.208 103.285 157.112 78.595 157.436 48.6587Z" fill="#00227B"/>
</g>
</g>
</g>
</g>
<path d="M101.619 116.448C94.5175 116.448 87.5808 115.18 80.9666 112.669C73.9344 110 67.5622 106.046 62.0283 100.918C56.4944 95.7899 52.0761 89.7447 48.8962 82.9512C45.6035 75.9168 43.7909 68.3842 43.5079 60.564C43.2249 52.7437 44.4878 45.1005 47.263 37.8481C49.9427 30.844 53.9125 24.4972 59.0614 18.9854C64.2102 13.4736 70.2781 9.07221 77.0996 5.90575C84.1622 2.62621 91.725 0.820907 99.5766 0.539007C107.429 0.257108 115.102 1.515 122.384 4.27909C129.416 6.94813 135.788 10.9021 141.322 16.0304C146.856 21.1587 151.274 27.2039 154.454 33.9974C157.747 41.0318 159.559 48.5644 159.842 56.3846C160.125 64.2049 158.862 71.8481 156.087 79.1005C153.407 86.1045 149.438 92.4514 144.289 97.9632C139.14 103.475 133.07 107.876 126.25 111.043C119.187 114.322 111.624 116.128 103.773 116.41C103.054 116.435 102.335 116.448 101.619 116.448ZM101.701 3.65383C101.032 3.65383 100.365 3.66613 99.691 3.68989C69.3615 4.77979 45.5771 30.2425 46.6714 60.4509C47.2013 75.0842 53.4214 88.6359 64.1847 98.6106C74.4503 108.123 87.6779 113.296 101.626 113.296C102.302 113.296 102.98 113.283 103.66 113.259C118.352 112.731 131.958 106.536 141.973 95.8153C151.987 85.095 157.21 71.1319 156.68 56.4985C155.609 26.9605 131.139 3.65383 101.701 3.65383Z" fill="#460ED5"/>
<path d="M158.133 57.8949C158.7 68.9161 155.633 79.3324 149.926 88.1115C145.647 94.6935 127.285 106.768 103.917 108.169C82.2495 109.469 61.9347 98.963 57.0031 92.8513C50.4243 84.6983 46.3064 74.6491 45.7395 63.628C44.2396 34.462 68.7768 21.0874 99.8155 19.5041C130.853 17.9209 156.633 28.729 158.133 57.8949Z" fill="#3949AB"/>
<path d="M100.156 109.365C89.3817 109.365 80.0112 106.69 73.7912 104.3C65.9149 101.275 58.9913 97.047 56.1536 93.5298C49.1889 84.8991 45.2117 74.5778 44.6514 63.6829C44.2795 56.4535 45.4766 49.8936 48.2074 44.1851C50.7785 38.8126 54.722 34.158 59.9301 30.3491C69.4445 23.3901 83.2167 19.2657 99.7575 18.4224C116.299 17.5792 130.422 20.2802 140.6 26.2345C146.171 29.4935 150.572 33.7229 153.681 38.8061C156.983 44.2064 158.847 50.6106 159.218 57.84C159.778 68.735 156.879 79.4062 150.837 88.7007C148.327 92.562 142.091 97.2953 134.565 101.052C127.954 104.352 117.282 108.453 103.981 109.251C102.689 109.328 101.412 109.365 100.156 109.365ZM105.598 20.4375C103.725 20.4375 101.816 20.4867 99.8694 20.5858C83.754 21.4078 70.389 25.388 61.2177 32.0954C50.9784 39.5846 46.1357 50.1755 46.8243 63.5723C47.3608 74.0091 51.1734 83.8994 57.8493 92.1728C59.8355 94.6345 65.4072 98.7581 74.5744 102.279C81.3186 104.87 91.8714 107.807 103.851 107.088C116.784 106.312 127.163 102.324 133.592 99.1146C142.207 94.814 147.284 90.1823 149.013 87.5231C154.805 78.6137 157.584 68.3875 157.047 57.9507C156.359 44.5539 150.454 34.5112 139.5 28.1029C130.874 23.0566 119.236 20.4375 105.598 20.4375Z" fill="#460ED5"/>
<g opacity="0.5">
<g opacity="0.5">
<g opacity="0.5">
<g opacity="0.5">
<path d="M146.86 55.7869C147.566 50.32 144.915 45.4748 140.938 44.9648C136.961 44.4547 133.164 48.473 132.457 53.9398C131.75 59.4067 134.402 64.2519 138.379 64.7619C142.356 65.272 146.153 61.2537 146.86 55.7869Z" fill="white"/>
</g>
</g>
</g>
</g>
<g opacity="0.5">
<g opacity="0.5">
<g opacity="0.5">
<g opacity="0.5">
<path d="M135.605 76.1069C136.275 73.6666 135.113 71.2243 133.011 70.652C130.908 70.0797 128.661 71.5941 127.991 74.0345C127.321 76.4749 128.483 78.9171 130.586 79.4894C132.688 80.0617 134.936 78.5473 135.605 76.1069Z" fill="white"/>
</g>
</g>
</g>
</g>
<g opacity="0.35">
<path d="M145.804 31.2432C153.01 37.422 157.528 46.1798 158.132 57.8934C158.699 68.917 155.631 79.3325 149.927 88.1115C145.647 94.6936 127.283 106.767 103.915 108.172C95.6647 108.669 87.6123 107.451 80.5267 105.413C109.214 103.078 131.576 88.2673 136.883 80.1036C144.128 68.9612 148.019 55.7398 147.297 41.7546C147.108 38.0162 146.595 34.5162 145.804 31.2432Z" fill="#00227B"/>
</g>
<path d="M48.692 40.0582C48.3727 40.0582 48.0519 39.9591 47.7771 39.7534C47.1304 39.2682 46.9814 38.3693 47.4216 37.7063C49.7714 33.8613 52.772 30.3474 56.3395 27.2629C59.8132 24.2604 63.853 21.6389 68.3461 19.4713C72.7454 17.3497 77.6079 15.6501 82.7979 14.4193C87.941 13.1999 93.4313 12.4345 99.1182 12.1444C104.711 11.8592 110.192 12.0518 115.407 12.7156C120.67 13.3859 125.674 14.5389 130.279 16.141C134.991 17.7808 139.303 19.8983 143.094 22.4346C146.991 25.0421 150.362 28.1086 153.115 31.5496C153.596 32.0798 153.645 32.8919 153.195 33.4819C152.687 34.149 151.731 34.2784 151.062 33.772L150.902 33.654L150.782 33.5016C140.589 20.7047 121.814 14.0243 99.2737 15.174C76.6083 16.3303 58.649 25.1315 50.0002 39.3207L49.9607 39.3854L49.9088 39.4534C49.611 39.8492 49.1544 40.0582 48.692 40.0582Z" fill="#460ED5"/>
<g opacity="0.5">
<g opacity="0.5">
<g opacity="0.5">
<g opacity="0.5">
<path d="M59.2516 80.3347C59.2516 80.3347 48.703 52.0251 63.6822 39.7649C78.6614 27.5048 101.063 26.4091 100.613 27.8662C100.613 27.8662 76.1232 35.1103 67.4241 55.1301C60.7161 70.5682 59.2516 80.3347 59.2516 80.3347Z" fill="white"/>
</g>
</g>
</g>
</g>
<path d="M152.99 218.008H52.567C49.3155 218.008 46.6793 215.383 46.6793 212.144C46.6793 210.278 48.1982 208.765 50.0716 208.765H155.485C157.359 208.765 158.878 210.278 158.878 212.144C158.878 215.383 156.242 218.008 152.99 218.008Z" fill="#E6E9FA"/>
<g opacity="0.3">
<g opacity="0.3">
<g opacity="0.3">
<g opacity="0.3">
<path opacity="0.3" d="M158.876 212.145C158.876 212.786 158.772 213.401 158.581 213.979C158.053 212.797 156.867 211.978 155.486 211.978H50.0724C49.1369 211.978 48.2878 212.354 47.6741 212.969C47.382 213.26 47.1426 213.599 46.9747 213.98C46.7838 213.402 46.6793 212.787 46.6793 212.146C46.6793 211.214 47.057 210.368 47.6749 209.757C48.2887 209.142 49.1378 208.765 50.0732 208.765H155.486C157.361 208.764 158.876 210.277 158.876 212.145Z" fill="white"/>
</g>
</g>
</g>
</g>
<g opacity="0.35">
<g opacity="0.35">
<g opacity="0.35">
<g opacity="0.35">
<path opacity="0.35" d="M158.876 212.145C158.876 213.763 158.218 215.231 157.151 216.289C156.088 217.351 154.613 218.007 152.99 218.007H52.5686C49.3171 218.007 46.6785 215.383 46.6785 212.145C46.6785 211.522 46.8472 210.937 47.1458 210.434C48.0361 212.532 50.1316 214.008 52.5678 214.008H152.989C154.613 214.008 156.088 213.353 157.15 212.29C157.681 211.761 158.112 211.131 158.407 210.434C158.708 210.937 158.876 211.522 158.876 212.145Z" fill="#00227B"/>
</g>
</g>
</g>
</g>
<path d="M152.991 219.5H52.5676C48.4958 219.5 45.1834 216.2 45.1834 212.145C45.1834 209.46 47.3769 207.276 50.0722 207.276H155.486C158.181 207.276 160.375 209.46 160.375 212.145C160.375 216.2 157.062 219.5 152.991 219.5ZM50.0714 210.257C49.0265 210.257 48.1758 211.103 48.1758 212.145C48.1758 214.557 50.1454 216.518 52.5668 216.518H152.991C155.412 216.518 157.382 214.557 157.382 212.145C157.382 211.104 156.532 210.257 155.486 210.257H50.0714Z" fill="#460ED5"/>
<path d="M164.74 142.744L154.918 208.764H50.6417L50.2863 206.375L40.8147 142.744C40.5045 140.654 42.1319 138.779 44.2497 138.779H161.304C163.427 138.779 165.05 140.654 164.74 142.744Z" fill="#FF66AC"/>
<path d="M164.74 142.744L154.918 208.764H50.6417L50.2863 206.375L40.8147 142.744C40.5045 140.654 42.1319 138.779 44.2497 138.779H161.304C163.427 138.779 165.05 140.654 164.74 142.744Z" fill="#E6E9FA"/>
<g opacity="0.5">
<g opacity="0.5">
<g opacity="0.5">
<g opacity="0.5">
<path opacity="0.5" d="M44.5175 146.843C44.2073 144.752 45.8347 142.877 47.9525 142.877H164.72L164.74 142.745C165.05 140.655 163.427 138.78 161.305 138.78H44.2509C42.1331 138.78 40.5057 140.655 40.8159 142.745L50.2867 206.376L50.6421 208.765H53.7349L44.5175 146.843Z" fill="white"/>
</g>
</g>
</g>
</g>
<g opacity="0.35">
<g opacity="0.35">
<g opacity="0.35">
<g opacity="0.35">
<path opacity="0.35" d="M158.014 138.779H149.794C152.911 150.152 151.191 175.832 131.085 189.254C105.844 206.102 60.3553 205.995 50.6977 206.375L51.0531 208.764H151.627L161.449 142.744C161.759 140.654 160.136 138.779 158.014 138.779Z" fill="#00227B"/>
</g>
</g>
</g>
</g>
<path d="M156.207 210.257H49.3504L39.3366 142.962C39.1243 141.537 39.5447 140.095 40.4893 139.004C41.4338 137.913 42.8053 137.288 44.2509 137.288H161.307C162.753 137.288 164.124 137.913 165.069 139.004C166.013 140.095 166.433 141.537 166.221 142.962L156.207 210.257ZM51.9331 207.275H153.625L163.26 142.525C163.346 141.95 163.183 141.391 162.802 140.951C162.421 140.511 161.89 140.269 161.307 140.269H44.2509C43.6676 140.269 43.1369 140.512 42.756 140.951C42.375 141.391 42.2121 141.95 42.2977 142.525L51.9331 207.275Z" fill="#460ED5"/>
<g opacity="0.3">
<g opacity="0.3">
<g opacity="0.3">
<g opacity="0.3">
<path opacity="0.3" d="M58.9422 193.34C54.9863 184.655 52.1058 169.83 52.755 161.105C53.4041 152.38 58.4847 155.05 60.0595 166.226C64.2498 195.969 60.7078 197.217 58.9422 193.34Z" fill="white"/>
</g>
</g>
</g>
</g>
<path d="M116.402 166.281C116.53 165.167 116.678 164.04 116.458 162.907C116.36 162.784 116.271 162.658 116.173 162.535C115.849 162.418 115.533 162.267 115.196 162.182C112.823 161.572 110.417 161.33 107.974 161.54C104.787 161.813 101.862 162.793 99.3472 164.81C98.4364 165.538 97.6063 166.36 96.7563 167.157C96.5284 167.374 96.3532 167.464 96.0331 167.318C95.2803 166.977 94.4691 166.825 93.6455 166.784C91.4364 166.684 89.465 167.395 87.6262 168.545C85.6334 169.795 84.0274 171.466 82.5316 173.255C81.8948 174.013 82.1424 174.858 83.0903 175.177C83.6884 175.371 84.2866 175.562 84.8847 175.757C86.318 176.219 87.7479 176.677 89.1771 177.139C89.1738 177.183 89.1779 177.206 89.1713 177.228C89.1598 177.256 89.1474 177.288 89.1277 177.315C88.5312 178.078 88.676 178.785 89.3046 179.449C89.3721 179.522 89.4305 179.61 89.4897 179.69C89.8188 180.121 90.1553 180.557 90.5042 181.006C90.0278 181.372 89.5596 181.683 89.1458 182.06C88.9368 182.249 88.7525 182.524 88.6735 182.797C88.5394 183.237 88.7682 183.687 89.1614 183.918C89.5786 184.168 90.008 184.157 90.3964 183.879C90.8892 183.53 91.3598 183.151 91.8609 182.77C92.334 183.391 92.7824 183.979 93.2325 184.559C93.7483 185.22 94.1038 185.333 94.9035 185.113C95.0491 185.068 95.1931 185.037 95.3651 184.995C95.3766 185.165 95.3897 185.302 95.3971 185.43C95.4992 187.489 95.593 189.55 95.7065 191.603C95.7583 192.577 96.5301 193.036 97.4129 192.619C98.2102 192.245 99.0066 191.848 99.7882 191.426C101.589 190.45 103.228 189.255 104.536 187.666C106.172 185.667 107.078 183.434 106.654 180.795C106.636 180.691 106.723 180.513 106.814 180.46C107.617 179.944 108.441 179.462 109.245 178.942C111.062 177.763 112.522 176.231 113.664 174.4C115.216 171.911 116.072 169.181 116.402 166.281ZM90.3594 175.189C88.7048 174.652 86.9893 174.095 85.227 173.524C87.0477 171.596 88.9747 169.913 91.5696 169.203C92.6911 168.895 93.9869 168.922 94.7521 169.231C93.2991 171.206 91.8428 173.181 90.3594 175.189ZM104.276 183.66C103.856 184.997 103.053 186.085 102.064 187.055C100.835 188.247 99.404 189.137 97.8572 189.949C97.7642 188.056 97.6688 186.204 97.575 184.39C99.9141 183.484 102.201 182.6 104.5 181.71C104.589 182.341 104.48 183.009 104.276 183.66ZM112.914 170.986C112.161 172.755 111.174 174.366 109.765 175.7C108.678 176.724 107.446 177.545 106.147 178.275C102.628 180.254 98.8552 181.619 94.9981 182.772C94.8097 182.827 94.6945 182.817 94.5703 182.645C94.3012 182.264 93.9993 181.896 93.7146 181.52C93.6957 181.499 93.6891 181.464 93.6619 181.397C93.7607 181.318 93.866 181.24 93.9721 181.159C96.173 179.476 98.3846 177.798 100.586 176.112C101.222 175.631 101.25 174.804 100.661 174.327C100.25 173.992 99.7076 173.997 99.2329 174.352C97.9082 175.359 96.5869 176.365 95.2655 177.375C94.2798 178.126 93.3024 178.873 92.2789 179.655C91.9276 179.198 91.5886 178.781 91.2825 178.342C91.2307 178.263 91.2833 178.065 91.3541 177.967C92.5273 176.223 93.6907 174.47 94.9117 172.757C96.1195 171.056 97.4927 169.484 99.0033 168.042C100.419 166.679 101.955 165.476 103.81 164.759C105 164.297 106.227 163.983 107.495 163.848C107.61 163.832 107.777 163.947 107.859 164.052C109.148 165.713 110.422 167.375 111.699 169.041C112.083 169.537 112.461 170.043 112.856 170.533C112.975 170.68 112.989 170.806 112.914 170.986ZM113.678 168.664C112.404 167.002 111.16 165.385 109.915 163.761C109.916 163.724 109.927 163.68 109.933 163.64C111.383 163.813 112.837 163.99 114.306 164.165C114.279 165.741 114.045 167.184 113.678 168.664Z" fill="#460ED5"/>
<path d="M112.858 170.532C112.462 170.042 112.085 169.536 111.701 169.04C110.424 167.374 109.15 165.712 107.861 164.051C107.779 163.946 107.612 163.831 107.497 163.847C106.229 163.983 105.002 164.297 103.812 164.758C101.956 165.475 100.421 166.678 99.0053 168.041C97.4947 169.483 96.1215 171.055 94.9137 172.756C93.6928 174.47 92.5294 176.223 91.3561 177.966C91.2853 178.064 91.2327 178.262 91.2845 178.341C91.5898 178.78 91.9287 179.197 92.2809 179.654C93.3044 178.872 94.2819 178.124 95.2675 177.374C96.5889 176.364 97.9102 175.357 99.2349 174.351C99.7096 173.996 100.251 173.992 100.663 174.326C101.252 174.804 101.225 175.631 100.588 176.111C98.3866 177.797 96.175 179.475 93.9741 181.158C93.868 181.239 93.7619 181.317 93.664 181.396C93.6911 181.464 93.6977 181.498 93.7166 181.519C94.0013 181.896 94.3032 182.263 94.5723 182.644C94.6965 182.816 94.8117 182.826 95.0001 182.772C98.8572 181.618 102.63 180.253 106.149 178.274C107.447 177.545 108.68 176.723 109.767 175.699C111.175 174.365 112.163 172.754 112.916 170.985C112.99 170.806 112.975 170.68 112.858 170.532ZM108.995 173.069C107.313 174.332 104.932 174.023 103.668 172.37C102.396 170.72 102.717 168.35 104.384 167.07C106.02 165.814 108.402 166.139 109.678 167.79C110.94 169.431 110.632 171.836 108.995 173.069Z" fill="white"/>
<path d="M113.678 168.663C112.403 167.003 111.159 165.385 109.914 163.761C109.919 163.722 109.927 163.682 109.933 163.64C111.383 163.815 112.838 163.991 114.308 164.166C114.28 165.74 114.044 167.184 113.678 168.663Z" fill="#DB2C2C"/>
<path d="M94.7526 169.232C93.2979 171.205 91.8416 173.181 90.3598 175.191C88.7028 174.651 86.9873 174.095 85.2258 173.525C87.0482 171.595 88.9743 169.912 91.5693 169.203C92.6907 168.895 93.9849 168.922 94.7526 169.232Z" fill="#DB2C2C"/>
<path d="M102.062 187.055C100.834 188.248 99.4045 189.139 97.856 189.949C97.7622 188.057 97.6676 186.205 97.5746 184.39C99.9138 183.485 102.2 182.601 104.502 181.709C104.59 182.341 104.479 183.008 104.278 183.662C103.857 184.998 103.054 186.086 102.062 187.055Z" fill="#DB2C2C"/>
<path d="M109.677 167.79C108.402 166.139 106.019 165.815 104.383 167.07C102.716 168.35 102.395 170.72 103.667 172.37C104.931 174.023 107.312 174.332 108.994 173.069C110.631 171.837 110.939 169.431 109.677 167.79ZM107.86 171.675C107.008 172.318 105.756 172.149 105.092 171.301C104.405 170.426 104.592 169.141 105.502 168.469C106.353 167.833 107.629 168.018 108.27 168.87C108.94 169.757 108.756 171.001 107.86 171.675Z" fill="#460ED5"/>
<path d="M107.859 171.675C107.007 172.318 105.755 172.149 105.089 171.299C104.405 170.426 104.591 169.141 105.5 168.469C106.353 167.835 107.627 168.017 108.268 168.868C108.938 169.756 108.756 171.002 107.859 171.675Z" fill="#22A7F0"/>
<path d="M164.222 146.228C164.222 146.228 156.141 142.408 148.552 145.835C141.285 149.116 136.143 172.476 145.559 178.393C151.37 182.046 155.326 178.819 158.614 179.767C163.49 181.171 173.495 157.119 164.222 146.228Z" fill="white"/>
<g opacity="0.35">
<path d="M167.869 161.43C166.911 171.221 161.721 180.662 158.615 179.767C155.326 178.82 151.371 182.047 145.56 178.395C141.061 175.566 139.887 168.761 140.68 162.059C141.215 165.969 142.73 169.319 145.56 171.097C151.371 174.746 155.24 173.05 158.615 172.469C162.787 171.75 166.189 167.211 167.869 161.43Z" fill="#00227B"/>
</g>
<path d="M151.518 181.67C149.557 181.67 147.288 181.243 144.76 179.654C142.496 178.232 140.861 175.93 139.901 172.812C139.095 170.197 138.794 167.009 139.029 163.594C139.308 159.55 140.307 155.401 141.84 151.912C143.011 149.246 145.02 145.792 147.933 144.477C156.061 140.807 164.507 144.713 164.863 144.881L165.154 145.018L165.362 145.263C169.606 150.247 169.851 157.133 169.309 162.031C168.699 167.551 166.743 173.405 164.205 177.311C161.662 181.222 159.534 181.584 158.196 181.199C157.328 180.949 156.231 181.124 154.961 181.326C153.957 181.487 152.804 181.67 151.518 181.67ZM155.469 145.894C153.195 145.894 151.086 146.328 149.17 147.193C147.595 147.905 145.922 150.061 144.584 153.108C143.205 156.245 142.269 160.142 142.016 163.8C141.571 170.259 143.153 175.119 146.357 177.134C149.588 179.164 152.08 178.767 154.49 178.382C156.047 178.134 157.518 177.9 159.03 178.335C159.203 178.365 160.449 177.887 162.205 174.855C166.302 167.787 168.9 154.439 163.296 147.451C162.66 147.188 161.026 146.57 158.886 146.199C157.711 145.996 156.57 145.894 155.469 145.894Z" fill="#460ED5"/>
<path d="M186.822 61.195C183.94 58.2276 181.973 54.3327 181.448 49.9165C180.173 39.197 187.864 29.478 198.627 28.2086C209.389 26.9392 219.147 34.5997 220.422 45.3193C221.696 56.0388 214.005 65.7578 203.243 67.0272C200.249 67.3804 197.334 67.0403 194.657 66.138L186.24 70.0928L186.822 61.195Z" fill="#FF0068"/>
<g opacity="0.5">
<path opacity="0.5" d="M199.071 31.9414C189.017 33.1272 181.645 41.6866 181.757 51.5466C181.603 50.8746 181.48 50.1895 181.396 49.4905C180.122 38.7709 187.813 29.0519 198.575 27.7826C209.338 26.5132 219.096 34.1737 220.37 44.8932C220.454 45.5964 220.497 46.2937 220.505 46.9862C218.305 37.368 209.127 30.7556 199.071 31.9414Z" fill="white"/>
</g>
<path d="M186.24 71.527C185.955 71.527 185.672 71.4434 185.429 71.2787C185.008 70.9927 184.769 70.5067 184.802 69.9995L185.345 61.7219C182.377 58.4776 180.539 54.4679 180.017 50.0846C179.356 44.5195 180.909 39.0315 184.392 34.6301C187.875 30.2295 192.87 27.4424 198.457 26.7836C204.044 26.1247 209.554 27.6719 213.973 31.1407C218.391 34.6096 221.189 39.5846 221.85 45.1497C222.512 50.7147 220.959 56.2028 217.476 60.6034C213.993 65.0039 208.998 67.791 203.411 68.4498C200.469 68.7965 197.56 68.5359 194.755 67.6754L186.853 71.3885C186.658 71.4819 186.449 71.527 186.24 71.527ZM200.947 29.5059C200.237 29.5059 199.519 29.5477 198.796 29.6329C193.973 30.2016 189.661 32.6076 186.654 36.4067C183.647 40.2058 182.305 44.944 182.877 49.7478C183.348 53.7157 185.071 57.3295 187.856 60.1977C188.139 60.4886 188.285 60.8844 188.258 61.2884L187.834 67.7582L194.041 64.8417C194.378 64.6835 194.764 64.6614 195.117 64.7802C197.686 65.6464 200.362 65.9234 203.073 65.6038C213.03 64.4295 220.17 55.4054 218.991 45.4889C217.898 36.2911 210.027 29.5059 200.947 29.5059Z" fill="#460ED5"/>
<g opacity="0.3">
<path opacity="0.3" d="M186.673 61.0361C192.911 64.2853 200.572 64.6098 207.347 61.2311C214.862 57.4845 219.369 50.1419 219.832 42.3463C220.101 43.3067 220.3 44.2983 220.421 45.3193C221.696 56.0389 214.004 65.7579 203.242 67.0273C200.249 67.3804 197.334 67.0404 194.656 66.1381L186.239 70.0929L186.822 61.195C186.771 61.1426 186.723 61.0885 186.673 61.0361Z" fill="#00227B"/>
</g>
<path d="M194.728 42.1291C196.426 40.4377 199.18 40.7409 200.878 42.4323L201.142 42.6954L201.406 42.4323C203.104 40.7409 205.858 40.4377 207.556 42.1291C209.255 43.8205 209.255 46.5633 207.556 48.2547L207.292 48.5178L201.953 53.8353C201.506 54.2811 200.78 54.2811 200.332 53.8353L194.993 48.5178L194.729 48.2547C193.03 46.5625 193.03 43.8205 194.728 42.1291Z" fill="white"/>
</svg>
