<?xml version="1.0" encoding="utf-8"?>
<svg version="1.1" id="Layer_1" xmlns="http://www.w3.org/2000/svg" xmlns:xlink="http://www.w3.org/1999/xlink" x="0px" y="0px"
	 viewBox="0 0 512 512" style="enable-background:new 0 0 512 512;" xml:space="preserve">
<style type="text/css">
	.st0{fill:#555555;}
</style>
<g>
	<path class="st0" d="M233.7,0l50.5,0.1c19.9,2.4,37.4,11.8,51.8,27.6c11.7,12.9,17.9,27.9,18.3,44.3h140.2
		c9.7,0,17.5,7.9,17.5,17.7c0,9.8-7.9,17.7-17.5,17.7l-47,0l0,297.7c0,65.1-24.3,107-77.9,107H138.7c-53.6,0-77.5-41.6-77.5-107
		V107.4l-43.7,0C7.9,107.4,0,99.5,0,89.7C0,79.9,7.9,72,17.5,72h140c0.4-13.1,5.2-26.5,14.2-39.7C185.1,12.7,205.9,1.9,233.7,0z
		 M412.3,107.4h-316l0,297.7c0,48.3,13.3,71.5,42.4,71.5h230.9c29.2,0,42.8-23.4,42.8-71.5L412.3,107.4z M171.9,162.3
		c9.7,0,17.5,7.9,17.5,17.7v206.1c0,9.8-7.9,17.7-17.5,17.7c-9.7,0-17.6-7.9-17.6-17.7V180C154.4,170.2,162.2,162.3,171.9,162.3z
		 M241.7,162.3c9.7,0,17.5,7.9,17.5,17.7v206.1c0,9.8-7.8,17.7-17.5,17.7c-9.7,0-17.6-7.9-17.6-17.7V180
		C224.2,170.2,232,162.3,241.7,162.3z M311.5,162.3c9.7,0,17.6,7.9,17.6,17.7v206.1c0,9.8-7.9,17.7-17.6,17.7
		c-9.7,0-17.6-7.9-17.6-17.7V180C294,170.2,301.9,162.3,311.5,162.3z M234.9,35.4c-16.4,1.1-27.3,6.8-34.2,16.9
		c-5.1,7.5-7.6,13.9-8,19.7l126.4,0c-0.4-7.5-3.3-14-9-20.3c-8.9-9.7-18.7-15-28-16.3L234.9,35.4z"/>
</g>
</svg>
